<mxfile host="app.diagrams.net" agent="Mozilla/5.0 (Windows NT 10.0; Win64; x64) AppleWebKit/537.36 (KHTML, like Gecko) Chrome/139.0.0.0 Safari/537.36" version="28.1.1">
  <diagram name="Page-1" id="oFi1qHTGRR-9ebkg50zm">
    <mxGraphModel dx="786" dy="459" grid="1" gridSize="10" guides="1" tooltips="1" connect="1" arrows="1" fold="1" page="1" pageScale="1" pageWidth="827" pageHeight="1169" math="0" shadow="0">
      <root>
        <mxCell id="0" />
        <mxCell id="1" parent="0" />
        <mxCell id="Vu_x2DJpyR37vNimTzYA-1" value="&lt;b&gt;&lt;i&gt;&lt;font style=&quot;font-size: 25px;&quot;&gt;STUDENT INFORMATION SYSTEM&lt;/font&gt;&lt;/i&gt;&lt;/b&gt;" style="rounded=0;whiteSpace=wrap;html=1;fillColor=#FF99FF;" vertex="1" parent="1">
          <mxGeometry x="130" y="30" width="540" height="50" as="geometry" />
        </mxCell>
        <mxCell id="Vu_x2DJpyR37vNimTzYA-2" value="&lt;font style=&quot;font-size: 9px;&quot;&gt;&lt;b style=&quot;&quot;&gt;ADMIN&lt;/b&gt;&lt;/font&gt;" style="rounded=0;whiteSpace=wrap;html=1;fillColor=#FF99FF;" vertex="1" parent="1">
          <mxGeometry x="60" y="110" width="80" height="40" as="geometry" />
        </mxCell>
        <mxCell id="Vu_x2DJpyR37vNimTzYA-4" value="&lt;font style=&quot;font-size: 9px;&quot;&gt;&lt;b&gt;FORGOT&lt;/b&gt;&lt;/font&gt;&lt;div&gt;&lt;font style=&quot;font-size: 9px;&quot;&gt;&lt;b&gt;PASSWORD&lt;/b&gt;&lt;/font&gt;&lt;/div&gt;" style="ellipse;whiteSpace=wrap;html=1;aspect=fixed;fillColor=#FF99FF;" vertex="1" parent="1">
          <mxGeometry x="70" y="190" width="60" height="60" as="geometry" />
        </mxCell>
        <mxCell id="Vu_x2DJpyR37vNimTzYA-5" value="&lt;font style=&quot;font-size: 9px;&quot;&gt;&lt;b style=&quot;&quot;&gt;CHECK&lt;/b&gt;&lt;/font&gt;&lt;div&gt;&lt;font style=&quot;font-size: 9px;&quot;&gt;&lt;b style=&quot;&quot;&gt;CREDENTIALS&lt;/b&gt;&lt;/font&gt;&lt;/div&gt;" style="ellipse;whiteSpace=wrap;html=1;aspect=fixed;fillColor=#FF99FF;" vertex="1" parent="1">
          <mxGeometry x="190" y="210" width="75" height="75" as="geometry" />
        </mxCell>
        <mxCell id="Vu_x2DJpyR37vNimTzYA-6" value="" style="endArrow=classic;html=1;rounded=0;entryX=0;entryY=0.5;entryDx=0;entryDy=0;" edge="1" parent="1" target="Vu_x2DJpyR37vNimTzYA-20">
          <mxGeometry width="50" height="50" relative="1" as="geometry">
            <mxPoint x="140" y="133" as="sourcePoint" />
            <mxPoint x="210" y="127.5" as="targetPoint" />
          </mxGeometry>
        </mxCell>
        <mxCell id="Vu_x2DJpyR37vNimTzYA-7" value="" style="endArrow=classic;html=1;rounded=0;exitX=0.5;exitY=1;exitDx=0;exitDy=0;" edge="1" parent="1" source="Vu_x2DJpyR37vNimTzYA-2" target="Vu_x2DJpyR37vNimTzYA-4">
          <mxGeometry width="50" height="50" relative="1" as="geometry">
            <mxPoint x="380" y="260" as="sourcePoint" />
            <mxPoint x="430" y="210" as="targetPoint" />
          </mxGeometry>
        </mxCell>
        <mxCell id="Vu_x2DJpyR37vNimTzYA-9" value="&lt;font style=&quot;font-size: 9px;&quot;&gt;&lt;b style=&quot;&quot;&gt;CHECK ROLES OF ACCESS&lt;/b&gt;&lt;/font&gt;" style="ellipse;whiteSpace=wrap;html=1;aspect=fixed;fillColor=#FF99FF;" vertex="1" parent="1">
          <mxGeometry x="354" y="110" width="60" height="60" as="geometry" />
        </mxCell>
        <mxCell id="Vu_x2DJpyR37vNimTzYA-10" value="&lt;font style=&quot;font-size: 9px;&quot;&gt;&lt;b style=&quot;&quot;&gt;MANAGE MODULES&lt;/b&gt;&lt;/font&gt;" style="ellipse;whiteSpace=wrap;html=1;aspect=fixed;fillColor=#FF99FF;" vertex="1" parent="1">
          <mxGeometry x="354" y="200" width="60" height="60" as="geometry" />
        </mxCell>
        <mxCell id="Vu_x2DJpyR37vNimTzYA-11" value="&lt;font style=&quot;font-size: 8px;&quot;&gt;&lt;b&gt;MANAGE TIMETABLE DETAILS&lt;/b&gt;&lt;/font&gt;" style="rounded=0;whiteSpace=wrap;html=1;fillColor=#FF99FF;" vertex="1" parent="1">
          <mxGeometry x="520" y="100" width="190" height="30" as="geometry" />
        </mxCell>
        <mxCell id="Vu_x2DJpyR37vNimTzYA-12" value="" style="endArrow=classic;html=1;rounded=0;exitX=0.96;exitY=0.24;exitDx=0;exitDy=0;entryX=0.033;entryY=0.389;entryDx=0;entryDy=0;entryPerimeter=0;exitPerimeter=0;" edge="1" parent="1" source="Vu_x2DJpyR37vNimTzYA-5" target="Vu_x2DJpyR37vNimTzYA-9">
          <mxGeometry width="50" height="50" relative="1" as="geometry">
            <mxPoint x="380" y="260" as="sourcePoint" />
            <mxPoint x="350" y="140" as="targetPoint" />
          </mxGeometry>
        </mxCell>
        <mxCell id="Vu_x2DJpyR37vNimTzYA-14" value="" style="endArrow=classic;html=1;rounded=0;exitX=0.5;exitY=1;exitDx=0;exitDy=0;entryX=0.5;entryY=0;entryDx=0;entryDy=0;" edge="1" parent="1" source="Vu_x2DJpyR37vNimTzYA-9" target="Vu_x2DJpyR37vNimTzYA-10">
          <mxGeometry width="50" height="50" relative="1" as="geometry">
            <mxPoint x="380" y="260" as="sourcePoint" />
            <mxPoint x="430" y="210" as="targetPoint" />
          </mxGeometry>
        </mxCell>
        <mxCell id="Vu_x2DJpyR37vNimTzYA-15" value="&lt;font style=&quot;font-size: 10px;&quot;&gt;&lt;b&gt;MANAGE FEES DETAILS&lt;/b&gt;&lt;/font&gt;" style="rounded=0;whiteSpace=wrap;html=1;fillColor=#FF99FF;" vertex="1" parent="1">
          <mxGeometry x="520" y="300" width="190" height="30" as="geometry" />
        </mxCell>
        <mxCell id="Vu_x2DJpyR37vNimTzYA-16" value="&lt;font style=&quot;font-size: 9px;&quot;&gt;&lt;b&gt;MANAGE STUDENT DETAILS&lt;/b&gt;&lt;/font&gt;" style="rounded=0;whiteSpace=wrap;html=1;fillColor=#FF99FF;" vertex="1" parent="1">
          <mxGeometry x="520" y="250" width="190" height="30" as="geometry" />
        </mxCell>
        <mxCell id="Vu_x2DJpyR37vNimTzYA-17" value="&lt;font style=&quot;font-size: 9px;&quot;&gt;&lt;b&gt;MANAGE CLASS DETAILS&lt;/b&gt;&lt;/font&gt;" style="rounded=0;whiteSpace=wrap;html=1;fillColor=#FF99FF;" vertex="1" parent="1">
          <mxGeometry x="520" y="200" width="190" height="30" as="geometry" />
        </mxCell>
        <mxCell id="Vu_x2DJpyR37vNimTzYA-18" value="&lt;font style=&quot;font-size: 9px;&quot;&gt;&lt;b&gt;MANAGE ATTENDENCE DETAILS&lt;/b&gt;&lt;/font&gt;" style="rounded=0;whiteSpace=wrap;html=1;fillColor=#FF99FF;" vertex="1" parent="1">
          <mxGeometry x="520" y="150" width="190" height="30" as="geometry" />
        </mxCell>
        <mxCell id="Vu_x2DJpyR37vNimTzYA-20" value="&lt;font style=&quot;font-size: 9px;&quot;&gt;&lt;b&gt;LOGIN TO SYSTEM&lt;/b&gt;&lt;/font&gt;" style="ellipse;whiteSpace=wrap;html=1;aspect=fixed;fillColor=#FF99FF;" vertex="1" parent="1">
          <mxGeometry x="210" y="105" width="55" height="55" as="geometry" />
        </mxCell>
        <mxCell id="Vu_x2DJpyR37vNimTzYA-21" value="&lt;font style=&quot;font-size: 9px;&quot;&gt;&lt;b style=&quot;&quot;&gt;SEND EMAIL TO USER&lt;/b&gt;&lt;/font&gt;" style="ellipse;whiteSpace=wrap;html=1;aspect=fixed;fillColor=#FF99FF;" vertex="1" parent="1">
          <mxGeometry x="70" y="295" width="65" height="65" as="geometry" />
        </mxCell>
        <mxCell id="Vu_x2DJpyR37vNimTzYA-22" value="" style="endArrow=classic;html=1;rounded=0;exitX=0.5;exitY=1;exitDx=0;exitDy=0;entryX=0.5;entryY=0;entryDx=0;entryDy=0;" edge="1" parent="1" source="Vu_x2DJpyR37vNimTzYA-4" target="Vu_x2DJpyR37vNimTzYA-21">
          <mxGeometry width="50" height="50" relative="1" as="geometry">
            <mxPoint x="380" y="260" as="sourcePoint" />
            <mxPoint x="100" y="280" as="targetPoint" />
          </mxGeometry>
        </mxCell>
        <mxCell id="Vu_x2DJpyR37vNimTzYA-23" value="&lt;font style=&quot;font-size: 9px;&quot;&gt;&lt;b&gt;MANAGE TEACHER DETAILS&lt;/b&gt;&lt;/font&gt;" style="rounded=0;whiteSpace=wrap;html=1;fillColor=#FF99FF;" vertex="1" parent="1">
          <mxGeometry x="520" y="350" width="190" height="30" as="geometry" />
        </mxCell>
        <mxCell id="Vu_x2DJpyR37vNimTzYA-25" value="&lt;font style=&quot;font-size: 9px;&quot;&gt;&lt;b&gt;MANAGE SYSTEM ADMINS&lt;/b&gt;&lt;/font&gt;" style="rounded=0;whiteSpace=wrap;html=1;fillColor=#FF99FF;" vertex="1" parent="1">
          <mxGeometry x="20" y="390" width="130" height="40" as="geometry" />
        </mxCell>
        <mxCell id="Vu_x2DJpyR37vNimTzYA-26" value="&lt;font style=&quot;font-size: 9px;&quot;&gt;&lt;b&gt;MANAGE REPORT&lt;/b&gt;&lt;/font&gt;" style="rounded=0;whiteSpace=wrap;html=1;fillColor=#FF99FF;" vertex="1" parent="1">
          <mxGeometry x="520" y="400" width="190" height="30" as="geometry" />
        </mxCell>
        <mxCell id="Vu_x2DJpyR37vNimTzYA-27" value="&lt;font style=&quot;font-size: 9px;&quot;&gt;&lt;b&gt;MANAGE ROLES OF USER&lt;/b&gt;&lt;/font&gt;" style="rounded=0;whiteSpace=wrap;html=1;fillColor=#FF99FF;" vertex="1" parent="1">
          <mxGeometry x="180" y="390" width="140" height="40" as="geometry" />
        </mxCell>
        <mxCell id="Vu_x2DJpyR37vNimTzYA-28" value="&lt;font style=&quot;font-size: 9px;&quot;&gt;&lt;b&gt;MANAGE USER PERMISSION&lt;/b&gt;&lt;/font&gt;" style="rounded=0;whiteSpace=wrap;html=1;fillColor=#FF99FF;" vertex="1" parent="1">
          <mxGeometry x="340" y="385" width="130" height="45" as="geometry" />
        </mxCell>
        <mxCell id="Vu_x2DJpyR37vNimTzYA-29" value="" style="endArrow=classic;html=1;rounded=0;exitX=0.711;exitY=0.089;exitDx=0;exitDy=0;exitPerimeter=0;entryX=0;entryY=0.25;entryDx=0;entryDy=0;" edge="1" parent="1" source="Vu_x2DJpyR37vNimTzYA-10" target="Vu_x2DJpyR37vNimTzYA-11">
          <mxGeometry width="50" height="50" relative="1" as="geometry">
            <mxPoint x="380" y="260" as="sourcePoint" />
            <mxPoint x="430" y="210" as="targetPoint" />
          </mxGeometry>
        </mxCell>
        <mxCell id="Vu_x2DJpyR37vNimTzYA-30" value="" style="endArrow=classic;html=1;rounded=0;entryX=0.697;entryY=-0.067;entryDx=0;entryDy=0;entryPerimeter=0;" edge="1" parent="1" source="Vu_x2DJpyR37vNimTzYA-10" target="Vu_x2DJpyR37vNimTzYA-25">
          <mxGeometry width="50" height="50" relative="1" as="geometry">
            <mxPoint x="380" y="260" as="sourcePoint" />
            <mxPoint x="430" y="210" as="targetPoint" />
          </mxGeometry>
        </mxCell>
        <mxCell id="Vu_x2DJpyR37vNimTzYA-31" value="" style="endArrow=classic;html=1;rounded=0;entryX=0.657;entryY=-0.05;entryDx=0;entryDy=0;entryPerimeter=0;" edge="1" parent="1" target="Vu_x2DJpyR37vNimTzYA-27">
          <mxGeometry width="50" height="50" relative="1" as="geometry">
            <mxPoint x="370" y="250" as="sourcePoint" />
            <mxPoint x="430" y="210" as="targetPoint" />
          </mxGeometry>
        </mxCell>
        <mxCell id="Vu_x2DJpyR37vNimTzYA-32" value="" style="endArrow=classic;html=1;rounded=0;entryX=0.451;entryY=-0.007;entryDx=0;entryDy=0;entryPerimeter=0;" edge="1" parent="1" target="Vu_x2DJpyR37vNimTzYA-28">
          <mxGeometry width="50" height="50" relative="1" as="geometry">
            <mxPoint x="399" y="250" as="sourcePoint" />
            <mxPoint x="430" y="210" as="targetPoint" />
          </mxGeometry>
        </mxCell>
        <mxCell id="Vu_x2DJpyR37vNimTzYA-33" value="" style="endArrow=classic;html=1;rounded=0;entryX=0;entryY=0.5;entryDx=0;entryDy=0;exitX=1;exitY=0;exitDx=0;exitDy=0;" edge="1" parent="1" source="Vu_x2DJpyR37vNimTzYA-10" target="Vu_x2DJpyR37vNimTzYA-18">
          <mxGeometry width="50" height="50" relative="1" as="geometry">
            <mxPoint x="380" y="260" as="sourcePoint" />
            <mxPoint x="520" y="190" as="targetPoint" />
          </mxGeometry>
        </mxCell>
        <mxCell id="Vu_x2DJpyR37vNimTzYA-34" value="" style="endArrow=classic;html=1;rounded=0;entryX=0;entryY=0.5;entryDx=0;entryDy=0;exitX=0.933;exitY=0.267;exitDx=0;exitDy=0;exitPerimeter=0;" edge="1" parent="1" source="Vu_x2DJpyR37vNimTzYA-10" target="Vu_x2DJpyR37vNimTzYA-17">
          <mxGeometry width="50" height="50" relative="1" as="geometry">
            <mxPoint x="380" y="260" as="sourcePoint" />
            <mxPoint x="430" y="210" as="targetPoint" />
          </mxGeometry>
        </mxCell>
        <mxCell id="Vu_x2DJpyR37vNimTzYA-35" value="" style="endArrow=classic;html=1;rounded=0;entryX=0;entryY=0.5;entryDx=0;entryDy=0;exitX=1;exitY=0.5;exitDx=0;exitDy=0;" edge="1" parent="1" source="Vu_x2DJpyR37vNimTzYA-10" target="Vu_x2DJpyR37vNimTzYA-16">
          <mxGeometry width="50" height="50" relative="1" as="geometry">
            <mxPoint x="380" y="260" as="sourcePoint" />
            <mxPoint x="430" y="210" as="targetPoint" />
          </mxGeometry>
        </mxCell>
        <mxCell id="Vu_x2DJpyR37vNimTzYA-36" value="" style="endArrow=classic;html=1;rounded=0;entryX=0;entryY=0.5;entryDx=0;entryDy=0;exitX=0.989;exitY=0.667;exitDx=0;exitDy=0;exitPerimeter=0;" edge="1" parent="1" source="Vu_x2DJpyR37vNimTzYA-10" target="Vu_x2DJpyR37vNimTzYA-15">
          <mxGeometry width="50" height="50" relative="1" as="geometry">
            <mxPoint x="380" y="260" as="sourcePoint" />
            <mxPoint x="430" y="210" as="targetPoint" />
          </mxGeometry>
        </mxCell>
        <mxCell id="Vu_x2DJpyR37vNimTzYA-37" value="" style="endArrow=classic;html=1;rounded=0;entryX=0;entryY=0.25;entryDx=0;entryDy=0;exitX=0.9;exitY=0.678;exitDx=0;exitDy=0;exitPerimeter=0;" edge="1" parent="1" source="Vu_x2DJpyR37vNimTzYA-10" target="Vu_x2DJpyR37vNimTzYA-23">
          <mxGeometry width="50" height="50" relative="1" as="geometry">
            <mxPoint x="380" y="260" as="sourcePoint" />
            <mxPoint x="430" y="210" as="targetPoint" />
          </mxGeometry>
        </mxCell>
        <mxCell id="Vu_x2DJpyR37vNimTzYA-38" value="" style="endArrow=classic;html=1;rounded=0;entryX=0;entryY=0.5;entryDx=0;entryDy=0;exitX=1;exitY=1;exitDx=0;exitDy=0;" edge="1" parent="1" source="Vu_x2DJpyR37vNimTzYA-10" target="Vu_x2DJpyR37vNimTzYA-26">
          <mxGeometry width="50" height="50" relative="1" as="geometry">
            <mxPoint x="380" y="260" as="sourcePoint" />
            <mxPoint x="430" y="210" as="targetPoint" />
          </mxGeometry>
        </mxCell>
        <mxCell id="Vu_x2DJpyR37vNimTzYA-39" value="" style="endArrow=classic;html=1;rounded=0;exitX=0.5;exitY=1;exitDx=0;exitDy=0;entryX=0.613;entryY=0.053;entryDx=0;entryDy=0;entryPerimeter=0;" edge="1" parent="1" source="Vu_x2DJpyR37vNimTzYA-20" target="Vu_x2DJpyR37vNimTzYA-5">
          <mxGeometry width="50" height="50" relative="1" as="geometry">
            <mxPoint x="380" y="290" as="sourcePoint" />
            <mxPoint x="430" y="240" as="targetPoint" />
          </mxGeometry>
        </mxCell>
      </root>
    </mxGraphModel>
  </diagram>
</mxfile>
